<svg xmlns="http://www.w3.org/2000/svg" width="240" height="240" viewBox="0 0 240 240" fill="none"><rect width="240" height="240" rx="64" fill="#F0FF44"></rect><path d="M25.488 164.368L43.28 136.336C42.256 136.464 41.104 136.464 39.952 136.464C22.16 136.464 10 125.072 10 106.256C10 87.184 22.8 74 41.872 74C59.792 74 72.72 85.776 72.72 105.488C72.72 114.96 69.648 122.896 59.664 139.28L44.432 164.368H25.488ZM41.488 123.024C50.064 123.024 55.952 116.24 55.952 106.256C55.952 96.272 50.192 89.488 41.488 89.488C32.784 89.488 26.896 96.272 26.896 106.256C26.896 116.112 32.912 123.024 41.488 123.024Z" fill="#0F2D47"></path><path d="M106.047 165.392C86.207 165.392 75.839 149.776 75.839 119.696C75.839 89.488 86.207 74 106.047 74C125.887 74 136.383 89.616 136.383 119.696C136.383 149.776 125.887 165.392 106.047 165.392ZM106.047 149.904C114.879 149.904 118.975 140.688 118.975 119.696C118.975 98.704 114.879 89.616 106.047 89.616C97.215 89.616 93.247 98.704 93.247 119.696C93.247 140.56 97.343 149.904 106.047 149.904Z" fill="#0F2D47"></path><path d="M146.861 164.368V90.64H136.109V75.024H163.501V164.368H146.861Z" fill="#0F2D47"></path><path d="M200.052 165.392C180.212 165.392 169.844 149.776 169.844 119.696C169.844 89.488 180.212 74 200.052 74C219.892 74 230.388 89.616 230.388 119.696C230.388 149.776 219.892 165.392 200.052 165.392ZM200.052 149.904C208.884 149.904 212.98 140.688 212.98 119.696C212.98 98.704 208.884 89.616 200.052 89.616C191.22 89.616 187.252 98.704 187.252 119.696C187.252 140.56 191.348 149.904 200.052 149.904Z" fill="#0F2D47"></path></svg>